<!DOCTYPE svg PUBLIC "-//W3C//DTD SVG 1.1//EN" "https://www.w3.org/Graphics/SVG/1.1/DTD/svg11.dtd"><svg xmlns="http://www.w3.org/2000/svg" id="sfn-svg" class="sfn-workflow-graph" width="373" height="1243">
    
    
<g transform="translate(14.5,19.375)"><g class="nodes"><g class="node-container" transform="translate(211.3984375,18.5)"><g class="node anchor"><circle class="shape" x="-15.875" y="-8.5" r="25.875"/><text class="label"><tspan xml:space="preserve" text-anchor="middle" alignment-baseline="central">Start</tspan></text></g></g><g class="node-container" transform="translate(211.3984375,1188.8125)"><g class="node anchor"><circle class="shape" x="-12.1875" y="-8.5" r="22.1875"/><text class="label"><tspan xml:space="preserve" text-anchor="middle" alignment-baseline="central">End</tspan></text></g></g><g class="node-container" transform="translate(211.3984375,80.5)"><g class="node state Task NotYetStarted"><rect class="shape" rx="5" ry="5" x="-53.75" y="-18.5" width="107.5" height="37"/><text class="label"><tspan xml:space="preserve" text-anchor="middle" alignment-baseline="central">DescribeMesh</tspan></text></g></g><g class="node-container" transform="translate(129.265625,142.53125)"><g class="node state Task NotYetStarted"><rect class="shape" rx="5" ry="5" x="-73.109375" y="-18.53125" width="146.21875" height="37.0625"/><text class="label"><tspan xml:space="preserve" text-anchor="middle" alignment-baseline="central">ListVirtualGateways</tspan></text></g></g><g class="node-container" transform="translate(293.53125,1126.78125)"><g class="node state Fail NotYetStarted"><rect class="shape" rx="5" ry="5" x="-52.90625" y="-18.53125" width="105.8125" height="37.0625"/><text class="label"><tspan xml:space="preserve" text-anchor="middle" alignment-baseline="central">AnyException</tspan></text></g></g><g class="node-container" transform="translate(129.265625,306.65625)"><g class="node state Map NotYetStarted Container" transform="translate(-121.765625,-120.59375)"><rect class="shape" rx="5" ry="5" x="-10" y="-10" width="241.53125" height="239.1875"/><rect class="shape" rx="5" ry="5" x="-5" y="-5" width="242.53125" height="240.1875"/><rect class="shape" rx="5" ry="5" x="0" y="0" width="243.53125" height="241.1875"/><g class="branches" transform="translate(20,20)"><g class="branch" transform="translate(0,0)"><g class="nodes"><g class="node-container" transform="translate(104.265625,18.53125)"><g class="node state Task NotYetStarted"><rect class="shape" rx="5" ry="5" x="-70.328125" y="-18.53125" width="140.65625" height="37.0625"/><text class="label"><tspan xml:space="preserve" text-anchor="middle" alignment-baseline="central">ListGatewayRoutes</tspan></text></g></g><g class="node-container" transform="translate(104.265625,100.59375)"><g class="node state Map NotYetStarted Container" transform="translate(-96.765625,-38.53125)"><rect class="shape" rx="5" ry="5" x="-10" y="-10" width="191.53125" height="75.0625"/><rect class="shape" rx="5" ry="5" x="-5" y="-5" width="192.53125" height="76.0625"/><rect class="shape" rx="5" ry="5" x="0" y="0" width="193.53125" height="77.0625"/><g class="branches" transform="translate(20,20)"><g class="branch" transform="translate(0,0)"><g class="nodes"><g class="node-container" transform="translate(76.765625,18.53125)"><g class="node state Task NotYetStarted"><rect class="shape" rx="5" ry="5" x="-76.765625" y="-18.53125" width="153.53125" height="37.0625"/><text class="label"><tspan xml:space="preserve" text-anchor="middle" alignment-baseline="central">DeleteGatewayRoute</tspan></text></g></g></g><g class="edges"/></g></g><path class="path" marker-end="url(#arrowhead407)" d="M96.765625,0L96.76562499999997,1.6666666666666665C96.76562499999999,3.333333333333333,96.76562499999999,6.666666666666666,96.76562499999997,8.333333333333332C96.76562499999999,10,96.76562499999999,10,96.76562499999997,11.666666666666664C96.76562499999999,13.333333333333332,96.76562499999999,16.666666666666664,96.76562499999997,18.333333333333332L96.765625,20" style="fill: none;"/></g></g><g class="node-container" transform="translate(104.265625,182.65625)"><g class="node state Task NotYetStarted"><rect class="shape" rx="5" ry="5" x="-79.546875" y="-18.53125" width="159.09375" height="37.0625"/><text class="label"><tspan xml:space="preserve" text-anchor="middle" alignment-baseline="central">DeleteVirtualGateway</tspan></text></g></g></g><g class="edges"><g class="edge"><path class="path" marker-end="url(#arrowhead408)" d="M104.265625,37.0625L104.26562499999997,39.14583333333333C104.26562499999999,41.229166666666664,104.26562499999999,45.39583333333333,104.26562499999997,49.5625C104.26562499999999,53.729166666666664,104.26562499999999,57.89583333333333,104.26562499999997,59.979166666666664L104.265625,62.0625" style="fill: none;"/><defs><marker id="arrowhead408" viewBox="0 0 10 10" refX="9" refY="5" markerUnits="strokeWidth" markerWidth="8" markerHeight="6" orient="auto"><path d="M 0 0 L 10 5 L 0 10 z"/></marker></defs></g><g class="edge"><path class="path" marker-end="url(#arrowhead409)" d="M104.265625,139.125L104.26562499999997,141.20833333333334C104.26562499999999,143.29166666666666,104.26562499999999,147.45833333333331,104.26562499999997,151.625C104.26562499999999,155.79166666666666,104.26562499999999,159.95833333333331,104.26562499999997,162.04166666666666L104.265625,164.125" style="fill: none;"/><defs><marker id="arrowhead409" viewBox="0 0 10 10" refX="9" refY="5" markerUnits="strokeWidth" markerWidth="8" markerHeight="6" orient="auto"><path d="M 0 0 L 10 5 L 0 10 z"/></marker></defs></g></g></g></g><path class="path" marker-end="url(#arrowhead410)" d="M121.765625,0L121.76562499999999,1.6666666666666665C121.765625,3.333333333333333,121.765625,6.666666666666666,122.18229166666666,8.333333333333332C122.59895833333333,10,123.43229166666666,10,123.84895833333333,11.666666666666664C124.265625,13.333333333333332,124.265625,16.666666666666664,124.265625,18.333333333333332L124.265625,20" style="fill: none;"/></g></g><g class="node-container" transform="translate(129.265625,470.75)"><g class="node state Task NotYetStarted"><rect class="shape" rx="5" ry="5" x="-68.390625" y="-18.5" width="136.78125" height="37"/><text class="label"><tspan xml:space="preserve" text-anchor="middle" alignment-baseline="central">ListVirtualServices</tspan></text></g></g><g class="node-container" transform="translate(129.265625,552.75)"><g class="node state Map NotYetStarted Container" transform="translate(-94.828125,-38.5)"><rect class="shape" rx="5" ry="5" x="-10" y="-10" width="187.65625" height="75"/><rect class="shape" rx="5" ry="5" x="-5" y="-5" width="188.65625" height="76"/><rect class="shape" rx="5" ry="5" x="0" y="0" width="189.65625" height="77"/><g class="branches" transform="translate(20,20)"><g class="branch" transform="translate(0,0)"><g class="nodes"><g class="node-container" transform="translate(74.828125,18.5)"><g class="node state Task NotYetStarted"><rect class="shape" rx="5" ry="5" x="-74.828125" y="-18.5" width="149.65625" height="37"/><text class="label"><tspan xml:space="preserve" text-anchor="middle" alignment-baseline="central">DeleteVirtualService</tspan></text></g></g></g><g class="edges"/></g></g><path class="path" marker-end="url(#arrowhead411)" d="M94.828125,0L94.828125,1.6666666666666665C94.828125,3.333333333333333,94.828125,6.666666666666666,94.828125,8.333333333333332C94.828125,10,94.828125,10,94.828125,11.666666666666664C94.828125,13.333333333333332,94.828125,16.666666666666664,94.828125,18.333333333333332L94.828125,20" style="fill: none;"/></g></g><g class="node-container" transform="translate(129.265625,634.75)"><g class="node state Task NotYetStarted"><rect class="shape" rx="5" ry="5" x="-66.96875" y="-18.5" width="133.9375" height="37"/><text class="label"><tspan xml:space="preserve" text-anchor="middle" alignment-baseline="central">ListVirtualRouters</tspan></text></g></g><g class="node-container" transform="translate(129.265625,798.75)"><g class="node state Map NotYetStarted Container" transform="translate(-96.359375,-120.5)"><rect class="shape" rx="5" ry="5" x="-10" y="-10" width="190.71875" height="239"/><rect class="shape" rx="5" ry="5" x="-5" y="-5" width="191.71875" height="240"/><rect class="shape" rx="5" ry="5" x="0" y="0" width="192.71875" height="241"/><g class="branches" transform="translate(20,20)"><g class="branch" transform="translate(0,0)"><g class="nodes"><g class="node-container" transform="translate(76.8125,18.5)"><g class="node state Task NotYetStarted"><rect class="shape" rx="5" ry="5" x="-42.875" y="-18.5" width="85.75" height="37"/><text class="label"><tspan xml:space="preserve" text-anchor="middle" alignment-baseline="central">ListRoutes</tspan></text></g></g><g class="node-container" transform="translate(76.8125,100.5)"><g class="node state Map NotYetStarted Container" transform="translate(-69.3125,-38.5)"><rect class="shape" rx="5" ry="5" x="-10" y="-10" width="136.625" height="75"/><rect class="shape" rx="5" ry="5" x="-5" y="-5" width="137.625" height="76"/><rect class="shape" rx="5" ry="5" x="0" y="0" width="138.625" height="77"/><g class="branches" transform="translate(20,20)"><g class="branch" transform="translate(0,0)"><g class="nodes"><g class="node-container" transform="translate(49.3125,18.5)"><g class="node state Task NotYetStarted"><rect class="shape" rx="5" ry="5" x="-49.3125" y="-18.5" width="98.625" height="37"/><text class="label"><tspan xml:space="preserve" text-anchor="middle" alignment-baseline="central">DeleteRoute</tspan></text></g></g></g><g class="edges"/></g></g><path class="path" marker-end="url(#arrowhead412)" d="M69.3125,0L69.31249999999999,1.6666666666666665C69.3125,3.333333333333333,69.3125,6.666666666666666,69.31249999999999,8.333333333333332C69.3125,10,69.3125,10,69.31249999999999,11.666666666666664C69.3125,13.333333333333332,69.3125,16.666666666666664,69.31249999999999,18.333333333333332L69.3125,20" style="fill: none;"/></g></g><g class="node-container" transform="translate(76.8125,182.5)"><g class="node state Task NotYetStarted"><rect class="shape" rx="5" ry="5" x="-73.40625" y="-18.5" width="146.8125" height="37"/><text class="label"><tspan xml:space="preserve" text-anchor="middle" alignment-baseline="central">DeleteVirtualRouter</tspan></text></g></g></g><g class="edges"><g class="edge"><path class="path" marker-end="url(#arrowhead413)" d="M76.8125,37L76.81249999999999,39.08333333333333C76.8125,41.166666666666664,76.8125,45.33333333333333,76.81249999999999,49.5C76.8125,53.666666666666664,76.8125,57.83333333333333,76.81249999999999,59.91666666666666L76.8125,62" style="fill: none;"/><defs><marker id="arrowhead413" viewBox="0 0 10 10" refX="9" refY="5" markerUnits="strokeWidth" markerWidth="8" markerHeight="6" orient="auto"><path d="M 0 0 L 10 5 L 0 10 z"/></marker></defs></g><g class="edge"><path class="path" marker-end="url(#arrowhead414)" d="M76.8125,139L76.81249999999999,141.08333333333331C76.8125,143.16666666666666,76.8125,147.33333333333331,76.81249999999999,151.5C76.8125,155.66666666666666,76.8125,159.83333333333331,76.81249999999999,161.91666666666666L76.8125,164" style="fill: none;"/><defs><marker id="arrowhead414" viewBox="0 0 10 10" refX="9" refY="5" markerUnits="strokeWidth" markerWidth="8" markerHeight="6" orient="auto"><path d="M 0 0 L 10 5 L 0 10 z"/></marker></defs></g></g></g></g><path class="path" marker-end="url(#arrowhead415)" d="M96.359375,0L96.35937499999999,1.6666666666666665C96.359375,3.333333333333333,96.359375,6.666666666666666,96.43489583333331,8.333333333333332C96.51041666666666,10,96.66145833333331,10,96.73697916666666,11.666666666666664C96.81249999999999,13.333333333333332,96.81249999999999,16.666666666666664,96.81249999999997,18.333333333333332L96.8125,20" style="fill: none;"/></g></g><g class="node-container" transform="translate(129.265625,962.75)"><g class="node state Task NotYetStarted"><rect class="shape" rx="5" ry="5" x="-62.5625" y="-18.5" width="125.125" height="37"/><text class="label"><tspan xml:space="preserve" text-anchor="middle" alignment-baseline="central">ListVirtualNodes</tspan></text></g></g><g class="node-container" transform="translate(129.265625,1044.75)"><g class="node state Map NotYetStarted Container" transform="translate(-88.984375,-38.5)"><rect class="shape" rx="5" ry="5" x="-10" y="-10" width="175.96875" height="75"/><rect class="shape" rx="5" ry="5" x="-5" y="-5" width="176.96875" height="76"/><rect class="shape" rx="5" ry="5" x="0" y="0" width="177.96875" height="77"/><g class="branches" transform="translate(20,20)"><g class="branch" transform="translate(0,0)"><g class="nodes"><g class="node-container" transform="translate(68.984375,18.5)"><g class="node state Task NotYetStarted"><rect class="shape" rx="5" ry="5" x="-68.984375" y="-18.5" width="137.96875" height="37"/><text class="label"><tspan xml:space="preserve" text-anchor="middle" alignment-baseline="central">DeleteVirtualNode</tspan></text></g></g></g><g class="edges"/></g></g><path class="path" marker-end="url(#arrowhead416)" d="M88.984375,0L88.984375,1.6666666666666665C88.984375,3.333333333333333,88.984375,6.666666666666666,88.984375,8.333333333333332C88.984375,10,88.984375,10,88.984375,11.666666666666664C88.984375,13.333333333333332,88.984375,16.666666666666664,88.984375,18.333333333333332L88.984375,20" style="fill: none;"/></g></g><g class="node-container" transform="translate(129.265625,1126.78125)"><g class="node state Task NotYetStarted"><rect class="shape" rx="5" ry="5" x="-47.34375" y="-18.5" width="94.6875" height="37"/><text class="label"><tspan xml:space="preserve" text-anchor="middle" alignment-baseline="central">DeleteMesh</tspan></text></g></g></g><g class="edges"><g class="edge"><path class="path" marker-end="url(#arrowhead417)" d="M162.38369455645162,99L156.86401629704304,101.08333333333333C151.3443380376344,103.16666666666666,140.30498151881721,107.33333333333333,134.7853032594086,111.5C129.265625,115.66666666666666,129.265625,119.83333333333331,129.265625,121.91666666666666L129.265625,124" style="fill: none;"/><defs><marker id="arrowhead417" viewBox="0 0 10 10" refX="9" refY="5" markerUnits="strokeWidth" markerWidth="8" markerHeight="6" orient="auto"><path d="M 0 0 L 10 5 L 0 10 z"/></marker></defs></g><g class="edge"><path class="path" marker-end="url(#arrowhead418)" d="M260.4131804435484,99L265.932858702957,101.08333333333333C271.45253696236557,103.16666666666666,282.4918934811828,107.33333333333333,288.0115717405914,114.58854166666666C293.53125,121.84375,293.53125,132.1875,293.53125,142.53125C293.53125,152.875,293.53125,163.21875,293.53125,190.57291666666666C293.53125,217.92708333333331,293.53125,262.2916666666667,293.53125,306.65625C293.53125,351.0208333333333,293.53125,395.38541666666663,293.53125,422.73437499999994C293.53125,450.08333333333326,293.53125,460.41666666666663,293.53125,470.75C293.53125,481.0833333333333,293.53125,491.41666666666663,293.53125,505.0833333333333C293.53125,518.75,293.53125,535.75,293.53125,552.75C293.53125,569.75,293.53125,586.75,293.53125,600.4166666666666C293.53125,614.0833333333333,293.53125,624.4166666666666,293.53125,634.75C293.53125,645.0833333333333,293.53125,655.4166666666666,293.53125,682.75C293.53125,710.0833333333333,293.53125,754.4166666666666,293.53125,798.75C293.53125,843.0833333333333,293.53125,887.4166666666666,293.53125,914.75C293.53125,942.0833333333333,293.53125,952.4166666666665,293.53125,962.7499999999999C293.53125,973.0833333333333,293.53125,983.4166666666666,293.53125,997.0833333333333C293.53125,1010.75,293.53125,1027.75,293.53125,1044.75C293.53125,1061.75,293.53125,1078.75,293.53125,1089.3333333333333C293.53125,1099.9166666666665,293.53125,1104.0833333333333,293.53125,1106.1666666666665L293.53125,1108.25" style="fill: none;"/><defs><marker id="arrowhead418" viewBox="0 0 10 10" refX="9" refY="5" markerUnits="strokeWidth" markerWidth="8" markerHeight="6" orient="auto"><path d="M 0 0 L 10 5 L 0 10 z"/></marker></defs></g><g class="edge"><path class="path" marker-end="url(#arrowhead419)" d="M211.3984375,44.375L211.39843749999997,45.229166666666664C211.3984375,46.08333333333333,211.3984375,47.791666666666664,211.39843749999997,50.72916666666667C211.3984375,53.666666666666664,211.3984375,57.83333333333333,211.39843749999997,59.91666666666666L211.3984375,62" style="fill: none;"/><defs><marker id="arrowhead419" viewBox="0 0 10 10" refX="9" refY="5" markerUnits="strokeWidth" markerWidth="8" markerHeight="6" orient="auto"><path d="M 0 0 L 10 5 L 0 10 z"/></marker></defs></g><g class="edge"><path class="path" marker-end="url(#arrowhead420)" d="M129.265625,161.0625L129.265625,163.14583333333334C129.265625,165.22916666666666,129.265625,169.39583333333331,129.265625,173.56249999999997C129.265625,177.72916666666666,129.265625,181.89583333333331,129.265625,183.97916666666666L129.265625,186.0625" style="fill: none;"/><defs><marker id="arrowhead420" viewBox="0 0 10 10" refX="9" refY="5" markerUnits="strokeWidth" markerWidth="8" markerHeight="6" orient="auto"><path d="M 0 0 L 10 5 L 0 10 z"/></marker></defs></g><g class="edge"><path class="path" marker-end="url(#arrowhead421)" d="M129.265625,427.25L129.265625,429.33333333333326C129.265625,431.41666666666663,129.265625,435.58333333333326,129.265625,439.74999999999994C129.265625,443.91666666666663,129.265625,448.0833333333333,129.265625,450.16666666666663L129.265625,452.25" style="fill: none;"/><defs><marker id="arrowhead421" viewBox="0 0 10 10" refX="9" refY="5" markerUnits="strokeWidth" markerWidth="8" markerHeight="6" orient="auto"><path d="M 0 0 L 10 5 L 0 10 z"/></marker></defs></g><g class="edge"><path class="path" marker-end="url(#arrowhead422)" d="M129.265625,489.25L129.265625,491.33333333333326C129.265625,493.41666666666663,129.265625,497.5833333333333,129.265625,501.74999999999994C129.265625,505.91666666666663,129.265625,510.0833333333333,129.265625,512.1666666666666L129.265625,514.25" style="fill: none;"/><defs><marker id="arrowhead422" viewBox="0 0 10 10" refX="9" refY="5" markerUnits="strokeWidth" markerWidth="8" markerHeight="6" orient="auto"><path d="M 0 0 L 10 5 L 0 10 z"/></marker></defs></g><g class="edge"><path class="path" marker-end="url(#arrowhead423)" d="M129.265625,591.25L129.265625,593.3333333333333C129.265625,595.4166666666666,129.265625,599.5833333333333,129.265625,603.75C129.265625,607.9166666666666,129.265625,612.0833333333333,129.265625,614.1666666666666L129.265625,616.25" style="fill: none;"/><defs><marker id="arrowhead423" viewBox="0 0 10 10" refX="9" refY="5" markerUnits="strokeWidth" markerWidth="8" markerHeight="6" orient="auto"><path d="M 0 0 L 10 5 L 0 10 z"/></marker></defs></g><g class="edge"><path class="path" marker-end="url(#arrowhead424)" d="M129.265625,653.25L129.265625,655.3333333333334C129.265625,657.4166666666666,129.265625,661.5833333333333,129.265625,665.7499999999999C129.265625,669.9166666666666,129.265625,674.0833333333333,129.265625,676.1666666666666L129.265625,678.25" style="fill: none;"/><defs><marker id="arrowhead424" viewBox="0 0 10 10" refX="9" refY="5" markerUnits="strokeWidth" markerWidth="8" markerHeight="6" orient="auto"><path d="M 0 0 L 10 5 L 0 10 z"/></marker></defs></g><g class="edge"><path class="path" marker-end="url(#arrowhead425)" d="M129.265625,919.25L129.265625,921.3333333333331C129.265625,923.4166666666665,129.265625,927.5833333333333,129.265625,931.75C129.265625,935.9166666666666,129.265625,940.0833333333333,129.265625,942.1666666666666L129.265625,944.25" style="fill: none;"/><defs><marker id="arrowhead425" viewBox="0 0 10 10" refX="9" refY="5" markerUnits="strokeWidth" markerWidth="8" markerHeight="6" orient="auto"><path d="M 0 0 L 10 5 L 0 10 z"/></marker></defs></g><g class="edge"><path class="path" marker-end="url(#arrowhead426)" d="M129.265625,981.25L129.265625,983.3333333333333C129.265625,985.4166666666666,129.265625,989.5833333333333,129.265625,993.75C129.265625,997.9166666666666,129.265625,1002.0833333333333,129.265625,1004.1666666666665L129.265625,1006.25" style="fill: none;"/><defs><marker id="arrowhead426" viewBox="0 0 10 10" refX="9" refY="5" markerUnits="strokeWidth" markerWidth="8" markerHeight="6" orient="auto"><path d="M 0 0 L 10 5 L 0 10 z"/></marker></defs></g><g class="edge"><path class="path" marker-end="url(#arrowhead427)" d="M129.265625,1083.25L129.265625,1085.3333333333333C129.265625,1087.4166666666665,129.265625,1091.5833333333333,129.265625,1095.7552083333333C129.265625,1099.9270833333333,129.265625,1104.1041666666665,129.265625,1106.1927083333333L129.265625,1108.28125" style="fill: none;"/><defs><marker id="arrowhead427" viewBox="0 0 10 10" refX="9" refY="5" markerUnits="strokeWidth" markerWidth="8" markerHeight="6" orient="auto"><path d="M 0 0 L 10 5 L 0 10 z"/></marker></defs></g><g class="edge"><path class="path" marker-end="url(#arrowhead428)" d="M129.265625,1145.28125L129.265625,1147.3697916666665C129.265625,1149.4583333333333,129.265625,1153.6354166666665,139.49474014671688,1159.584809555836C149.7238552934338,1165.5342024450056,170.18208558686757,1173.2559048900114,180.41120073358448,1177.1167561125142L190.6403158803014,1180.9776073350172" style="fill: none;"/><defs><marker id="arrowhead428" viewBox="0 0 10 10" refX="9" refY="5" markerUnits="strokeWidth" markerWidth="8" markerHeight="6" orient="auto"><path d="M 0 0 L 10 5 L 0 10 z"/></marker></defs></g><g class="edge"><path class="path" marker-end="url(#arrowhead429)" d="M293.53125,1145.3125L293.53125,1147.3958333333333C293.53125,1149.4791666666665,293.53125,1153.6458333333333,283.3021348532831,1159.5900178891695C273.0730197065662,1165.5342024450056,252.6147894131324,1173.2559048900114,242.3856742664155,1177.1167561125142L232.1565591196986,1180.9776073350172" style="fill: none;"/><defs><marker id="arrowhead429" viewBox="0 0 10 10" refX="9" refY="5" markerUnits="strokeWidth" markerWidth="8" markerHeight="6" orient="auto"><path d="M 0 0 L 10 5 L 0 10 z"/></marker></defs></g></g></g><style xmlns="http://www.w3.org/1999/xhtml">.node &gt; .shape {stroke: #555555;stroke-width: 0.6px;fill: #FFFFFF;} path {stroke: #555;background-color: #555;stroke-width: 1px;} .node.state.NotYetStarted &gt; .shape,.node.state.Container &gt; .shape {stroke-dasharray: 5 2;} .node.state.Failed &gt; .shape,rect.legend.Failed {fill: #DE322F;} .node.state.CaughtError &gt; .shape,rect.legend.CaughtError {fill: #FFA500;} .node.state.Succeeded &gt; .shape,rect.legend.Succeeded {fill: #2BD62E;} .node.state.InProgress &gt; .shape,rect.legend.InProgress {fill: #53c9ed;} .node.state.Cancelled &gt; .shape,rect.legend.Cancelled {fill: #dddddd;} .node.anchor &gt; .shape {fill: #FFDA75;} .node.state.hovered:not(.selected):not(.NotYetStarted) &gt; .shape,.node.selected &gt; .shape {stroke: #555555;stroke-width: 2px;} .node.state.Container.Failed &gt; .shape {fill: #EE9592;} .node.state.Container.CaughtError &gt; .shape {fill: #FFD27F;} .node.state.Container.Succeeded &gt; .shape {fill: #91EA9A;} .node.state.Container.InProgress &gt; .shape {fill :#A9E4F7;} .node.state.Container.Cancelled &gt; .shape {fill: #EEEEEE;} marker {fill: #555555;} .node.anchor,.node.state.NotYetStarted {cursor: default;} .node.state {cursor: pointer;} tspan .label {font-weight: normal;font-size: 12px;text-shadow: none;} </style></svg>